<?xml version="1.0" standalone="no"?>
<!DOCTYPE svg PUBLIC "-//W3C//DTD SVG 20010904//EN"
 "http://www.w3.org/TR/2001/REC-SVG-20010904/DTD/svg10.dtd">
<svg version="1.0" xmlns="http://www.w3.org/2000/svg"
 width="990.000000pt" height="906.000000pt" viewBox="0 0 990.000000 906.000000"
 preserveAspectRatio="xMidYMid meet">
<metadata>
Created by potrace 1.15, written by Peter Selinger 2001-2017
</metadata>
<g transform="translate(0.000000,906.000000) scale(0.100000,-0.100000)"
fill="#000000" stroke="none">
<path d="M3025 8285 c-748 -65 -1293 -285 -1666 -672 -187 -195 -296 -379
-388 -658 -102 -310 -129 -516 -112 -841 10 -197 41 -458 70 -604 16 -78 19
-85 42 -88 18 -2 861 -739 2704 -2365 l2678 -2362 96 -3 c107 -4 336 11 511
34 577 75 1029 264 1395 584 285 249 472 572 565 975 77 332 78 842 4 1167
l-16 66 -2306 2029 c-1268 1115 -2491 2191 -2716 2390 l-411 362 -150 -1 c-82
0 -217 -6 -300 -13z"/>
<path d="M5525 8211 c11 -10 470 -407 1020 -882 550 -475 1201 -1038 1448
-1251 l448 -387 92 67 c50 37 137 112 193 167 355 353 524 802 524 1390 0 357
-73 678 -200 883 l-20 32 -1762 0 c-1721 0 -1762 0 -1743 -19z"/>
<path d="M1225 3224 c-240 -182 -433 -426 -545 -689 -122 -288 -165 -541 -157
-912 7 -337 47 -533 153 -750 l55 -113 1767 0 c1391 1 1764 3 1752 13 -9 7
-418 359 -910 783 -1644 1416 -2015 1734 -2021 1734 -3 0 -46 -30 -94 -66z"/>
</g>
</svg>
